<svg width="808" height="366" viewBox="0 0 808 366" fill="none" xmlns="http://www.w3.org/2000/svg">
<path d="M412.379 204.982H298.555C293.255 204.982 288.982 201.608 288.982 197.463V176.778C288.982 172.615 293.274 169.26 298.555 169.26H412.379C417.678 169.26 421.951 172.634 421.951 176.778V197.463C421.951 201.626 417.66 204.982 412.379 204.982Z" fill="white"/>
<path d="M424.922 11.4796L424.5 12.1214C423.785 13.2217 423.4 14.5054 423.4 15.8257V114.026C423.4 115.786 422.721 117.473 421.511 118.738L399.121 142.193C397.819 143.55 396.021 144.32 394.133 144.32H316.086C314.161 144.32 312.327 143.513 311.025 142.101L289.478 118.72C288.323 117.455 287.662 115.804 287.662 114.099V16.0091C287.662 14.5787 287.222 13.2034 286.379 12.0298L286.177 11.7546C282.931 7.22516 286.177 0.935303 291.77 0.935303H323.751C329.931 0.935303 332.975 8.4355 328.538 12.7082C327.199 13.9919 326.447 15.7707 326.447 17.6228V100.51C326.447 102.821 327.621 104.985 329.565 106.25L331.27 107.369C332.389 108.084 333.691 108.487 335.029 108.487H374.493C376.198 108.487 377.848 107.846 379.114 106.709L379.591 106.269C381.021 104.967 381.846 103.133 381.846 101.207V17.366C381.846 15.679 381.223 14.0469 380.067 12.7816L379.701 12.3782C375.703 7.97706 378.857 0.953659 384.817 0.953659H419.127C424.574 0.953659 427.856 6.95017 424.922 11.498V11.4796Z" fill="white"/>
<path d="M270.7 193.539C273.634 198.087 270.37 205 264.905 205H230.613C224.653 205 221.535 197.041 225.515 192.64L225.9 191.778C227.037 190.531 227.697 188.441 227.697 186.754V126.349C227.697 124.423 226.835 122.571 225.423 121.269L224.928 120.847C224.286 120.26 223.534 119.472 222.764 119.16C221.994 118.848 221.15 118.335 220.289 118.335H180.807C179.945 118.335 179.12 118.867 178.35 119.16C177.909 119.325 177.469 119.728 177.048 119.967L175.544 121.195C173.582 122.442 172.61 124.698 172.61 126.99V186.46C172.61 188.312 173.16 190.99 174.517 192.292C178.955 196.565 175.746 204.982 169.529 204.982H137.566C131.973 204.982 128.727 197.775 131.973 193.245L132.211 192.493C133.036 191.356 133.513 189.486 133.513 188.037V14.5969C133.513 13.1666 133.036 11.7911 132.211 10.6175L131.991 10.8926C128.745 6.39982 131.973 0.660003 137.566 0.660003H169.529C175.727 0.660003 178.936 7.57348 174.517 11.8462C173.16 13.1115 172.61 14.3585 172.61 16.1923V75.644C172.61 77.9546 173.582 80.1185 175.544 81.3838L177.139 82.484C177.561 82.7591 177.946 82.6308 178.386 82.7958C178.936 82.9975 179.468 82.8875 180.092 82.8875H178.35H222.764H221.022C221.627 82.8875 222.214 82.9792 222.764 82.7958C223.534 82.5024 224.286 82.2273 224.928 81.6405L225.423 81.3103C226.835 79.99 227.697 78.248 227.697 76.3225V15.8988C227.697 14.2118 227.037 12.5613 225.9 11.3144L225.515 11.4794C221.517 7.04166 224.635 0.623291 230.594 0.623291H264.886C270.351 0.623291 273.615 6.03309 270.681 10.5809L270.406 10.9293C269.709 12.0296 269.453 13.0564 269.453 14.3768V188.184C269.453 189.504 269.709 191.247 270.406 192.328L270.681 193.465L270.7 193.539Z" fill="white"/>
<path d="M583.122 188.899H579.308L543.274 108.212C561.942 97.5213 571.294 80.5587 571.294 57.3429C571.294 42.5441 567.241 29.2858 559.136 17.5678C551.049 5.84984 537.809 0 519.453 0H444.157C441.186 0 438.766 2.40228 438.766 5.39137V8.08699C438.766 9.57237 439.371 10.9111 440.343 11.883C441.315 12.8549 442.672 13.46 444.157 13.46V188.881H444.139C441.571 188.881 439.481 190.972 439.481 193.539V200.324C439.481 202.891 441.571 204.982 444.139 204.982H492.661C495.192 204.982 497.245 202.928 497.245 200.397V193.466C497.245 190.935 495.192 188.881 492.661 188.881H486.224V114.979H504.709L541.22 204.505H583.14C585.671 204.505 587.725 202.451 587.725 199.921V193.484C587.725 190.953 585.653 188.881 583.122 188.899ZM500.638 82.3375H486.224V34.5487H504.471C511.586 34.5487 517.197 36.5109 521.25 40.4352C525.321 44.3595 527.356 50.2827 527.356 58.2231C527.356 74.3054 518.444 82.3375 500.638 82.3375Z" fill="white"/>
<path d="M337.398 254.882V262.401H341.846L326.954 329.367L314.426 262.803L317.144 262.755L317.059 254.882H284.752V261.987H289.87L315.097 365.975H337.008L365.988 262.401H370.375V254.882H337.398Z" fill="#FFB639"/>
<path d="M715.744 332.511L708.116 328.307C706.775 327.563 705.264 327.332 703.862 327.563C698.293 340.579 686.826 349.524 673.567 349.524C654.848 349.524 639.675 331.695 639.675 309.722C639.675 287.75 654.848 269.921 673.567 269.921C687.191 269.921 698.951 279.512 704.313 293.136C704.362 293.148 704.423 293.295 704.484 293.295H710.468C711.991 293.295 711.65 291.771 711.65 290.285V257.393C711.65 255.882 711.991 253.213 710.468 253.213H705.922C704.399 253.213 703.144 255.15 703.144 256.662C703.144 258.27 701.815 259.733 700.365 259.733C699.865 259.733 699.341 259.781 698.878 259.489C691.127 254.614 682.499 252.262 672.238 252.262C661.977 252.262 653.324 254.529 645.135 258.928C636.946 263.364 630.353 269.969 625.515 278.707C620.677 287.445 618.215 297.67 618.215 309.308C618.215 325.674 622.846 339.226 632.169 349.914C641.491 360.614 655.311 365.976 673.664 365.976C694.467 365.976 709.383 357.725 718.401 341.237C720.107 338.129 718.901 334.23 715.744 332.511Z" fill="#FFB639"/>
<path d="M121.196 335.436C110.289 355.788 92.2528 365.988 67.0752 365.988C44.8834 365.988 28.1633 359.383 16.8907 346.172C5.61802 332.974 0 316.279 0 296.073C0 281.705 2.99789 269.129 8.84747 258.343C14.6971 247.558 22.6671 239.491 32.5749 234.031C42.4826 228.596 53.5359 226 65.3569 226C77.7751 226 88.2069 229.303 97.5784 235.311C98.1512 235.688 98.7849 236.42 99.3942 236.42C101.137 236.42 102.746 236.212 102.746 234.238C102.746 232.374 104.257 233.178 106.109 233.178H110.496V272.529C110.496 272.858 110.594 273.101 110.74 273.26H103.647C96.9325 257.222 83.0153 247.4 66.9655 247.4C44.3228 247.4 25.9697 269.397 25.9697 296.536C25.9697 323.676 44.3228 345.661 66.9655 345.661C83.0031 345.661 96.8837 334.619 103.611 318.545C105.317 318.277 107.145 318.545 108.766 319.472L117.991 324.663C121.805 326.783 123.268 331.597 121.196 335.436Z" fill="#FFB639"/>
<path d="M437.258 282.473H449.578C451.26 282.473 452.625 281.108 452.625 279.426V254.882H379.261C377.982 254.882 376.958 255.942 376.958 257.258V261.109C376.958 261.755 377.214 262.352 377.628 262.791C378.043 263.218 378.628 263.486 379.261 263.486V356.909C377.982 356.909 376.958 357.969 376.958 359.285V363.599C376.958 364.915 377.982 365.975 379.261 365.975H452.625V341.273C452.625 339.591 451.26 338.226 449.578 338.226H437.258C435.564 338.226 434.199 339.591 434.199 341.273V347.208H403.756C402.062 347.208 400.698 345.843 400.698 344.161V317.119H426.034C427.374 317.119 428.459 316.01 428.459 314.633V300.838C428.459 299.461 427.374 298.352 426.034 298.352H400.698V276.696C400.698 275.014 402.062 273.65 403.756 273.65H434.199V279.426C434.199 281.108 435.564 282.473 437.258 282.473Z" fill="#FFB639"/>
<path d="M190.489 282.473H202.81C204.491 282.473 205.856 281.108 205.856 279.426V254.882H132.493C131.213 254.882 130.189 255.942 130.189 257.258V261.109C130.189 261.755 130.445 262.352 130.86 262.791C131.274 263.218 131.847 263.486 132.493 263.486V356.909C131.213 356.909 130.189 357.969 130.189 359.285V363.599C130.189 364.915 131.213 365.975 132.493 365.975H205.856V341.273C205.856 339.591 204.491 338.226 202.81 338.226H190.489C188.795 338.226 187.43 339.591 187.43 341.273V347.208H156.988C155.294 347.208 153.929 345.843 153.929 344.161V317.119H179.265C180.606 317.119 181.678 316.01 181.678 314.633V300.838C181.678 299.461 180.606 298.352 179.265 298.352H153.929V276.696C153.929 275.014 155.294 273.65 156.988 273.65H187.43V279.426C187.43 281.108 188.795 282.473 190.489 282.473Z" fill="#FFB639"/>
<path d="M287.421 357.238H285.41L266.46 313.439C276.282 307.638 281.193 298.425 281.193 285.812C281.193 277.781 279.061 270.579 274.808 264.217C270.542 257.856 263.584 254.675 253.92 254.675H214.313C212.753 254.675 211.474 255.991 211.474 257.612V259.075C211.474 259.879 211.79 260.61 212.302 261.146C212.814 261.67 213.521 261.999 214.313 261.999V357.238H214.301C212.948 357.238 211.851 358.371 211.851 359.761V363.441C211.851 364.842 212.948 365.976 214.301 365.976H239.832C241.16 365.976 242.245 364.855 242.245 363.478V359.724C242.245 358.347 241.16 357.238 239.832 357.238H236.444V320.507C236.444 318.631 237.919 317.107 239.734 317.107H243.951C245.292 317.107 246.498 317.948 247.01 319.228L265.375 365.72H287.421C288.761 365.72 289.846 364.611 289.846 363.234V359.736C289.846 358.359 288.749 357.238 287.421 357.238ZM244.024 299.388H236.444V273.443H246.035C249.788 273.443 252.738 274.503 254.87 276.636C257.015 278.756 258.088 281.986 258.088 286.287C258.088 295.025 253.396 299.388 244.024 299.388Z" fill="#FFB639"/>
<path d="M457.229 257.161V270.762C457.229 272.126 458.143 273.235 459.277 273.235H483.784V354.703C483.784 356.153 482.809 357.335 481.615 357.335H478.044C477.264 357.335 476.643 358.091 476.643 359.041V364.087C476.643 365.135 477.35 366 478.215 366H510.631C511.594 366 512.374 365.049 512.374 363.892V358.981C512.374 358.079 511.765 357.348 511.021 357.348H506.89C505.964 357.348 505.22 356.446 505.22 355.325V273.248H529.728C530.861 273.248 531.775 272.139 531.775 270.774V257.173C531.775 255.808 530.861 254.699 529.728 254.699H459.277C458.143 254.699 457.229 255.808 457.229 257.173V257.161Z" fill="#FFB639"/>
<path d="M804.512 358.335H804.452L781.992 268.166H782.394C784.136 268.166 785.55 266.801 785.55 265.119V259.001C785.55 257.307 784.136 255.942 782.394 255.942H744.457C742.714 255.942 741.3 257.307 741.3 259.001V265.119C741.3 266.801 742.714 268.166 744.457 268.166H744.822L722.874 358.335H722.338C720.595 358.335 719.182 359.699 719.182 361.393V362.917C719.182 364.611 720.595 365.975 722.338 365.975H744.457C746.212 365.975 747.625 364.611 747.625 362.917V361.393C747.625 359.699 746.212 358.335 744.457 358.335H742.885L749.185 327.77H777.677L783.978 358.335H782.394C780.651 358.335 779.237 359.699 779.237 361.393V362.917C779.237 364.611 780.651 365.975 782.394 365.975H804.512C806.267 365.975 807.681 364.611 807.681 362.917V361.393C807.681 359.699 806.267 358.335 804.512 358.335ZM752.476 312.488L759.751 278.256C760.056 276.83 761.347 275.807 762.846 275.807H764.016C765.515 275.807 766.807 276.83 767.112 278.256L774.375 312.488H752.476Z" fill="#FFB639"/>
<path d="M598.923 282.473H611.256C612.938 282.473 614.303 281.108 614.303 279.426V254.882H540.927C539.66 254.882 538.624 255.942 538.624 257.258V261.109C538.624 262.413 539.66 263.486 540.927 263.486H540.939V356.909H540.927C539.66 356.909 538.624 357.969 538.624 359.285V363.599C538.624 364.915 539.66 365.975 540.927 365.975H614.303V341.273C614.303 339.591 612.938 338.226 611.256 338.226H598.923C597.242 338.226 595.877 339.591 595.877 341.273V347.208H565.422C563.741 347.208 562.376 345.843 562.376 344.161V317.119H587.712C589.04 317.119 590.125 316.01 590.125 314.633V300.838C590.125 299.461 589.04 298.352 587.712 298.352H562.376V276.696C562.376 275.014 563.741 273.65 565.422 273.65H595.877V279.426C595.877 281.108 597.242 282.473 598.923 282.473Z" fill="#FFB639"/>
</svg>
